<svg width="175" height="113" viewBox="0 0 175 113" fill="none" xmlns="http://www.w3.org/2000/svg">
<path d="M1.38403 57.4977C10.1533 62.462 46.14 75.4657 57.6532 61.8517C72.0448 44.8343 46.702 27.9485 34.0463 45.1916C21.3906 62.4346 57.2043 86.4976 76.3839 86.4976C108.384 86.4976 147.969 68.6023 154.884 57.4976" stroke="#FA8F54" stroke-width="1.5" stroke-dasharray="7 7"/>
<path d="M167.387 51.1489C167.055 51.2645 166.693 51.2656 166.36 51.1523L162.577 49.8791L161.345 52.7788C161.291 52.9064 161.204 53.0172 161.093 53.1C160.982 53.1829 160.851 53.2347 160.713 53.2503C160.575 53.2659 160.436 53.2447 160.309 53.1887C160.182 53.1328 160.073 53.0443 159.991 52.9321L156.78 48.5103L153.776 48.5094C153.451 48.5092 153.135 48.4102 152.868 48.2256C152.601 48.0411 152.397 47.7797 152.282 47.4763C152.167 47.1728 152.147 46.8416 152.225 46.5267C152.303 46.2118 152.475 45.928 152.718 45.7132L164.111 35.7584C164.328 35.5678 164.593 35.4396 164.877 35.3874C165.161 35.3352 165.454 35.361 165.725 35.462C165.995 35.563 166.234 35.7355 166.414 35.9612C166.595 36.1868 166.711 36.4571 166.75 36.7434L168.452 49.4256C168.499 49.7915 168.419 50.1624 168.225 50.4761C168.031 50.7899 167.735 51.0274 167.387 51.1489Z" fill="#3B71FE"/>
<path d="M160.882 53.212C160.723 53.2671 160.551 53.2698 160.391 53.2195C160.231 53.1692 160.091 53.0687 159.992 52.9328L156.549 48.1958C156.442 48.0482 156.389 47.8678 156.401 47.6856C156.413 47.5035 156.488 47.3311 156.613 47.1985L163.014 40.4147C163.142 40.2785 163.315 40.1928 163.501 40.173C163.687 40.1532 163.874 40.2007 164.028 40.3069C164.182 40.4131 164.293 40.5709 164.34 40.7517C164.388 40.9326 164.369 41.1246 164.288 41.2929L160.87 48.3505L161.401 52.3695C161.424 52.5422 161.389 52.7175 161.301 52.8678C161.213 53.0182 161.077 53.1349 160.916 53.1994C160.904 53.2042 160.893 53.2082 160.882 53.212Z" fill="#1A4ED3"/>
</svg>
