<svg width="21" height="14" viewBox="0 0 21 14" fill="none" xmlns="http://www.w3.org/2000/svg">
<path fill-rule="evenodd" clip-rule="evenodd" d="M13.6364 0.397811C14.2451 -0.164098 15.1941 -0.126144 15.756 0.482583L20.6022 5.73252C21.1326 6.30711 21.1326 7.19277 20.6022 7.76736L15.756 13.0174C15.1941 13.6262 14.2452 13.6641 13.6364 13.1022C13.0277 12.5403 12.9897 11.5913 13.5516 10.9826L16.074 8.24995L1.5 8.24995C0.671572 8.24995 -1.14623e-06 7.57838 -1.1802e-06 6.74995C-1.21417e-06 5.92152 0.671572 5.24995 1.5 5.24995L16.074 5.24995L13.5516 2.51744C12.9897 1.90871 13.0277 0.95972 13.6364 0.397811Z" fill="white"/>
</svg>
