<svg width="107" height="19" viewBox="0 0 107 19" fill="none" xmlns="http://www.w3.org/2000/svg">
<path fill-rule="evenodd" clip-rule="evenodd" d="M9 15.8684L4.41095 18.3904C3.75039 18.7534 2.98088 18.1624 3.1077 17.3894L3.9827 12.0567L0.274997 8.27883C-0.262261 7.7314 0.0322975 6.77307 0.772364 6.66066L5.90147 5.88159L8.19413 1.02568C8.52506 0.324774 9.47494 0.324774 9.80587 1.02568L12.0985 5.88159L17.2276 6.66066C17.9677 6.77307 18.2623 7.7314 17.725 8.27883L14.0173 12.0567L14.8923 17.3894C15.0191 18.1624 14.2496 18.7534 13.5891 18.3904L9 15.8684Z" fill="#FFC83A"/>
<path fill-rule="evenodd" clip-rule="evenodd" d="M31 15.8684L26.4109 18.3904C25.7504 18.7534 24.9809 18.1624 25.1077 17.3894L25.9827 12.0567L22.275 8.27883C21.7377 7.7314 22.0323 6.77307 22.7724 6.66066L27.9015 5.88159L30.1941 1.02568C30.5251 0.324774 31.4749 0.324774 31.8059 1.02568L34.0985 5.88159L39.2276 6.66066C39.9677 6.77307 40.2623 7.7314 39.725 8.27883L36.0173 12.0567L36.8923 17.3894C37.0191 18.1624 36.2496 18.7534 35.5891 18.3904L31 15.8684Z" fill="#FFC83A"/>
<path fill-rule="evenodd" clip-rule="evenodd" d="M53 15.8684L48.4109 18.3904C47.7504 18.7534 46.9809 18.1624 47.1077 17.3894L47.9827 12.0567L44.275 8.27883C43.7377 7.7314 44.0323 6.77307 44.7724 6.66066L49.9015 5.88159L52.1941 1.02568C52.5251 0.324774 53.4749 0.324774 53.8059 1.02568L56.0985 5.88159L61.2276 6.66066C61.9677 6.77307 62.2623 7.7314 61.725 8.27883L58.0173 12.0567L58.8923 17.3894C59.0191 18.1624 58.2496 18.7534 57.5891 18.3904L53 15.8684Z" fill="#FFC83A"/>
<path fill-rule="evenodd" clip-rule="evenodd" d="M75 15.8684L70.4109 18.3904C69.7504 18.7534 68.9809 18.1624 69.1077 17.3894L69.9827 12.0567L66.275 8.27883C65.7377 7.7314 66.0323 6.77307 66.7724 6.66066L71.9015 5.88159L74.1941 1.02568C74.5251 0.324774 75.4749 0.324774 75.8059 1.02568L78.0985 5.88159L83.2276 6.66066C83.9677 6.77307 84.2623 7.7314 83.725 8.27883L80.0173 12.0567L80.8923 17.3894C81.0191 18.1624 80.2496 18.7534 79.5891 18.3904L75 15.8684Z" fill="#FFC83A"/>
<path fill-rule="evenodd" clip-rule="evenodd" d="M97 15.8684L92.4109 18.3904C91.7504 18.7534 90.9809 18.1624 91.1077 17.3894L91.9827 12.0567L88.275 8.27883C87.7377 7.7314 88.0323 6.77307 88.7724 6.66066L93.9015 5.88159L96.1941 1.02568C96.5251 0.324774 97.4749 0.324774 97.8059 1.02568L100.099 5.88159L105.228 6.66066C105.968 6.77307 106.262 7.7314 105.725 8.27883L102.017 12.0567L102.892 17.3894C103.019 18.1624 102.25 18.7534 101.589 18.3904L97 15.8684Z" stroke="#FFC83A"/>
<mask id="mask0_40_137" style="mask-type:alpha" maskUnits="userSpaceOnUse" x="88" y="0" width="18" height="19">
<path fill-rule="evenodd" clip-rule="evenodd" d="M97 15.8684L92.4109 18.3904C91.7504 18.7534 90.9809 18.1624 91.1077 17.3894L91.9827 12.0567L88.275 8.27883C87.7377 7.7314 88.0323 6.77307 88.7724 6.66066L93.9015 5.88159L96.1941 1.02568C96.5251 0.324774 97.4749 0.324774 97.8059 1.02568L100.099 5.88159L105.228 6.66066C105.968 6.77307 106.262 7.7314 105.725 8.27883L102.017 12.0567L102.892 17.3894C103.019 18.1624 102.25 18.7534 101.589 18.3904L97 15.8684Z" fill="#FFC83A"/>
</mask>
<g mask="url(#mask0_40_137)">
<rect x="85" y="-0.5" width="12" height="20" fill="#FFC83A"/>
</g>
</svg>
